name C:/MyDriveSym/Projects/mobilecap/Data\Session20210819_0002\mocap\ForceDataProcessed\walking1_forces.mot
datacolumns 19
datarows 29
range 0.98200000 0.99600000
endheader 
time	R_ground_force_vx	R_ground_force_vy	R_ground_force_vz	R_ground_force_px	R_ground_force_py	R_ground_force_pz	R_ground_torque_x	R_ground_torque_y	R_ground_torque_z	L_ground_force_vx	L_ground_force_vy	L_ground_force_vz	L_ground_force_px	L_ground_force_py	L_ground_force_pz	L_ground_torque_x	L_ground_torque_y	L_ground_torque_z	
          0.98200000	          0.00000000	          0.00000000	          0.00000000	          1.26439400	          0.00000000	         -0.18990200	          0.00000000	          0.00000000	          0.00000000	         36.33354200	        592.27999400	         25.53206400	          0.94521900	          0.00600000	         -0.29989900	          0.00000000	          3.71974800	          0.00000000	
          0.98250000	          0.00000000	          0.00000000	          0.00000000	          1.26597800	          0.00000000	         -0.18996900	          0.00000000	          0.00000000	          0.00000000	         36.71741800	        593.02073100	         25.59903900	          0.94535400	          0.00600000	         -0.29992200	          0.00000000	          3.72157900	          0.00000000	
          0.98300000	          0.00000000	          0.00000000	          0.00000000	          1.26756100	          0.00000000	         -0.19003600	          0.00000000	          0.00000000	          0.00000000	         37.10227700	        593.76027300	         25.66567600	          0.94548900	          0.00600000	         -0.29994400	          0.00000000	          3.72331100	          0.00000000	
          0.98350000	          0.00000000	          0.00000000	          0.00000000	          1.26914500	          0.00000000	         -0.19010400	          0.00000000	          0.00000000	          0.00000000	         37.48811000	        594.49854800	         25.73196700	          0.94562400	          0.00600000	         -0.29996600	          0.00000000	          3.72494300	          0.00000000	
          0.98400000	          0.00000000	          0.00000000	          0.00000000	          1.27072900	          0.00000000	         -0.19017100	          0.00000000	          0.00000000	          0.00000000	         37.87491000	        595.23548700	         25.79790100	          0.94575900	          0.00600000	         -0.29998800	          0.00000000	          3.72647500	          0.00000000	
          0.98450000	          0.00000000	          0.00000000	          0.00000000	          1.27231300	          0.00000000	         -0.19023800	          0.00000000	          0.00000000	          0.00000000	         38.26266900	        595.97102000	         25.86347100	          0.94589300	          0.00600000	         -0.30001000	          0.00000000	          3.72790700	          0.00000000	
          0.98500000	          0.00000000	          0.00000000	          0.00000000	          1.27389600	          0.00000000	         -0.19030500	          0.00000000	          0.00000000	          0.00000000	         38.65137700	        596.70507500	         25.92866800	          0.94602800	          0.00600000	         -0.30003200	          0.00000000	          3.72923900	          0.00000000	
          0.98550000	          0.00000000	          0.00000000	          0.00000000	          1.27548000	          0.00000000	         -0.19037300	          0.00000000	          0.00000000	          0.00000000	         39.04102600	        597.43758200	         25.99348200	          0.94616200	          0.00600000	         -0.30005400	          0.00000000	          3.73047100	          0.00000000	
          0.98600000	          0.00000000	          0.00000000	          0.00000000	          1.27706400	          0.00000000	         -0.19044000	          0.00000000	          0.00000000	          0.00000000	         39.43160800	        598.16846900	         26.05790500	          0.94629700	          0.00600000	         -0.30007600	          0.00000000	          3.73160200	          0.00000000	
          0.98650000	          0.00000000	          0.00000000	          0.00000000	          1.27864800	          0.00000000	         -0.19050700	          0.00000000	          0.00000000	          0.00000000	         39.82311300	        598.89766500	         26.12192800	          0.94643100	          0.00600000	         -0.30009800	          0.00000000	          3.73263300	          0.00000000	
          0.98700000	          0.00000000	          0.00000000	          0.00000000	          1.28023100	          0.00000000	         -0.19057500	          0.00000000	          0.00000000	          0.00000000	         40.21553100	        599.62509800	         26.18554200	          0.94656500	          0.00600000	         -0.30011900	          0.00000000	          3.73356300	          0.00000000	
          0.98750000	          0.00000000	          0.00000000	          0.00000000	          1.28181500	          0.00000000	         -0.19064200	          0.00000000	          0.00000000	          0.00000000	         40.60885500	        600.35069600	         26.24873800	          0.94669900	          0.00600000	         -0.30014100	          0.00000000	          3.73439100	          0.00000000	
          0.98800000	          0.00000000	          0.00000000	          0.00000000	          1.28339900	          0.00000000	         -0.19070900	          0.00000000	          0.00000000	          0.00000000	         41.00307400	        601.07438600	         26.31150800	          0.94683300	          0.00600000	         -0.30016300	          0.00000000	          3.73511900	          0.00000000	
          0.98850000	          0.00000000	          0.00000000	          0.00000000	          1.28498300	          0.00000000	         -0.19077600	          0.00000000	          0.00000000	          0.00000000	         41.39817900	        601.79609500	         26.37384400	          0.94696700	          0.00600000	         -0.30018400	          0.00000000	          3.73574600	          0.00000000	
          0.98900000	          0.00000000	          0.00000000	          0.00000000	          1.28656700	          0.00000000	         -0.19084400	          0.00000000	          0.00000000	          0.00000000	         41.79415900	        602.51575000	         26.43573500	          0.94710100	          0.00600000	         -0.30020600	          0.00000000	          3.73627100	          0.00000000	
          0.98950000	          0.00000000	          0.00000000	          0.00000000	          1.28815000	          0.00000000	         -0.19091100	          0.00000000	          0.00000000	          0.00000000	         42.19100500	        603.23327900	         26.49717500	          0.94723400	          0.00600000	         -0.30022700	          0.00000000	          3.73669500	          0.00000000	
          0.99000000	          0.00000000	          0.00000000	          0.00000000	          1.28973400	          0.00000000	         -0.19097800	          0.00000000	          0.00000000	          0.00000000	         42.58870800	        603.94860800	         26.55815300	          0.94736800	          0.00600000	         -0.30024800	          0.00000000	          3.73701700	          0.00000000	
          0.99050000	          0.00000000	          0.00000000	          0.00000000	          1.29131800	          0.00000000	         -0.19104600	          0.00000000	          0.00000000	          0.00000000	         42.98725500	        604.66166200	         26.61866200	          0.94750200	          0.00600000	         -0.30027000	          0.00000000	          3.73723800	          0.00000000	
          0.99100000	          0.00000000	          0.00000000	          0.00000000	          1.29290200	          0.00000000	         -0.19111300	          0.00000000	          0.00000000	          0.00000000	         43.38663800	        605.37236800	         26.67869200	          0.94763500	          0.00600000	         -0.30029100	          0.00000000	          3.73735700	          0.00000000	
          0.99150000	          0.00000000	          0.00000000	          0.00000000	          1.29448500	          0.00000000	         -0.19118000	          0.00000000	          0.00000000	          0.00000000	         43.78684500	        606.08065100	         26.73823600	          0.94776800	          0.00600000	         -0.30031200	          0.00000000	          3.73737400	          0.00000000	
          0.99200000	          0.00000000	          0.00000000	          0.00000000	          1.29606900	          0.00000000	         -0.19124700	          0.00000000	          0.00000000	          0.00000000	         44.18786700	        606.78643800	         26.79728500	          0.94790200	          0.00600000	         -0.30033300	          0.00000000	          3.73729000	          0.00000000	
          0.99250000	          0.00000000	          0.00000000	          0.00000000	          1.29765300	          0.00000000	         -0.19131500	          0.00000000	          0.00000000	          0.00000000	         44.58969100	        607.48965200	         26.85583000	          0.94803500	          0.00600000	         -0.30035400	          0.00000000	          3.73710400	          0.00000000	
          0.99300000	          0.00000000	          0.00000000	          0.00000000	          1.29923700	          0.00000000	         -0.19138200	          0.00000000	          0.00000000	          0.00000000	         44.99230700	        608.19021900	         26.91386400	          0.94816800	          0.00600000	         -0.30037500	          0.00000000	          3.73681600	          0.00000000	
          0.99350000	          0.00000000	          0.00000000	          0.00000000	          1.30082000	          0.00000000	         -0.19144900	          0.00000000	          0.00000000	          0.00000000	         45.39570300	        608.88806400	         26.97137600	          0.94830100	          0.00600000	         -0.30039600	          0.00000000	          3.73642700	          0.00000000	
          0.99400000	          0.00000000	          0.00000000	          0.00000000	          1.30240400	          0.00000000	         -0.19151700	          0.00000000	          0.00000000	          0.00000000	         45.79986900	        609.58311100	         27.02836000	          0.94843400	          0.00600000	         -0.30041700	          0.00000000	          3.73593500	          0.00000000	
          0.99450000	          0.00000000	          0.00000000	          0.00000000	          1.30398800	          0.00000000	         -0.19158400	          0.00000000	          0.00000000	          0.00000000	         46.20479300	        610.27528300	         27.08480700	          0.94856600	          0.00600000	         -0.30043700	          0.00000000	          3.73534200	          0.00000000	
          0.99500000	          0.00000000	          0.00000000	          0.00000000	          1.30557200	          0.00000000	         -0.19165100	          0.00000000	          0.00000000	          0.00000000	         46.61046200	        610.96450600	         27.14070800	          0.94869900	          0.00600000	         -0.30045800	          0.00000000	          3.73464700	          0.00000000	
          0.99550000	          0.00000000	          0.00000000	          0.00000000	          1.30715500	          0.00000000	         -0.19171900	          0.00000000	          0.00000000	          0.00000000	         47.01686600	        611.65070200	         27.19605600	          0.94883100	          0.00600000	         -0.30047900	          0.00000000	          3.73385000	          0.00000000	
          0.99600000	          0.00000000	          0.00000000	          0.00000000	          1.30873900	          0.00000000	         -0.19178600	          0.00000000	          0.00000000	          0.00000000	         47.42399300	        612.33379500	         27.25084100	          0.94896400	          0.00600000	         -0.30049900	          0.00000000	          3.73295100	          0.00000000	
